<?xml version="1.0" encoding="UTF-8"?>
<svg id="Livello_1" xmlns="http://www.w3.org/2000/svg" version="1.1" viewBox="0 0 1459.1 601.5">
  <!-- Generator: Adobe Illustrator 29.4.0, SVG Export Plug-In . SVG Version: 2.1.0 Build 152)  -->
  <defs>
    <style>
      .st0 {
        fill: #d1d3d4;
      }

      .st1 {
        fill: #010101;
      }

      .st2 {
        fill: #fff;
      }

      .st3 {
        fill: #e6e7e8;
      }

      .st4 {
        fill: #d31e47;
      }
    </style>
  </defs>
  <g>
    <path class="st3" d="M687.2,239.1c-.2-2.9-.3-6.9-3.2-11.2-4.7-7.4-13.7-8.6-19.1-8.6-27.8,0-33.3,25.3-33.3,42.4s1.1,21.1,9.5,29.9c5.7,6.2,13.2,9.5,26.8,9.5s15.9-1.4,18.6-2.2v-23.4h-22.1v-18.5h46.5v55.6c-7.1,2.3-18.8,6.2-41.6,6.2s-39.4-6.2-48.4-14.8c-12.8-12.2-15.1-29.9-15.1-41.6,0-39.4,25.2-60.5,59.8-60.5s29.8,4,38.8,14c7.6,8.5,8,17.2,8.2,23.3h-25.4Z"/>
    <path class="st3" d="M775.4,202.6c12.1,0,28.9,2.8,40.1,15.1,12.1,13.6,14.5,31,14.5,41.9,0,16.2-5,33.4-14.4,43.6-12.6,13.9-31.1,15.9-40.5,15.9-15,0-30-4.6-40.4-15.2-12.5-12.9-14-31.4-14-41.6,0-29.6,13.7-59.6,54.7-59.6ZM754.8,292.5c3.5,4.6,9.3,8.9,20.7,8.9s16.7-3.4,21.3-10.3c3.8-5.5,7.7-14.2,7.7-31.9s-.5-13.1-2.8-19.9c-4.7-13.7-14.3-19.7-26-19.7s-16.4,3.7-21,9.4c-6.5,7.7-8.4,19.7-8.4,32.3s1.7,22.5,8.5,31.1Z"/>
    <path class="st3" d="M840.1,205h24.9v92.3h48.9v18.9h-73.8v-111.2Z"/>
    <path class="st3" d="M925.1,204.6h24.4v111.7h-24.4v-111.7Z"/>
    <path class="st3" d="M971.5,204.9h35.3l42.7,87.6v-87.6h22.7v111.4h-33.6l-44.1-92.4v92.4h-23v-111.4Z"/>
    <path class="st3" d="M1093.2,204.9h76.3v18.2h-51.9v26.5h48.6v18.2h-48.6v30h53.6v18.5h-78.1v-111.4Z"/>
    <path class="st3" d="M1188.5,205h24.9v92.3h48.9v18.9h-73.8v-111.2Z"/>
    <path class="st3" d="M1274.9,205h24.9v92.3h48.9v18.9h-73.8v-111.2Z"/>
    <path class="st3" d="M1360,204.6h24.4v111.7h-24.4v-111.7Z"/>
  </g>
  <path class="st3" d="M605.9,97.8h57.1v13.9h-38.1v21.3h35.5v14.4h-35.5v36.8h-19v-86.4Z"/>
  <path class="st3" d="M710.3,95.9c9.4,0,22.4,2.2,31.1,11.7,9.4,10.5,11.3,24,11.3,32.5,0,12.6-3.9,26-11.1,33.9-9.8,10.8-24.1,12.3-31.5,12.3-11.6,0-23.3-3.6-31.4-11.8-9.7-10-10.9-24.4-10.9-32.3,0-23,10.7-46.3,42.5-46.3ZM694.3,165.7c2.7,3.6,7.2,6.9,16,6.9s13-2.6,16.5-8c2.9-4.3,6-11,6-24.8s-.4-10.2-2.2-15.4c-3.7-10.6-11.1-15.3-20.2-15.3s-12.7,2.9-16.3,7.3c-5,6-6.5,15.3-6.5,25.1s1.3,17.5,6.6,24.2Z"/>
  <path class="st3" d="M764,97.7h27.4l33.2,68.1v-68.1h17.6v86.5h-26.1l-34.3-71.8v71.8h-17.9v-86.5Z"/>
  <path class="st3" d="M859.8,97.9h29.3c4.9.1,19.8.2,30.5,7.9,11.1,8,15.1,21.7,15.1,34,0,26.6-14.6,40.4-31.4,43.4-3.3.6-7,1-15.9,1h-27.6v-86.3ZM879.1,169.9c2.1.1,5.3.2,7.5.2,8.1,0,15.1-.6,20.6-6,7.5-7.3,8-20.2,8-24.4,0-12.2-4.3-23.4-16.2-26.7-3.9-1.1-8.9-1.7-19.8-1.2v58Z"/>
  <path class="st3" d="M989.1,97.7l30.7,86.5h-19.1l-6.4-18.7h-35l-6.6,18.7h-18.1l32-86.5h22.5ZM989.6,151.5l-12.2-36.8-13.1,36.8h25.4Z"/>
  <path class="st3" d="M1024.3,168.4l46.3-56.6-43.5.4v-14.1h64.1v16.4l-46.2,56.2,47.2-.7v14.2h-67.9v-15.8Z"/>
  <path class="st3" d="M1106.1,97.4h19v86.7h-19v-86.7Z"/>
  <path class="st3" d="M1177.6,95.9c9.4,0,22.4,2.2,31.1,11.7,9.4,10.5,11.3,24,11.3,32.5,0,12.6-3.9,26-11.1,33.9-9.8,10.8-24.1,12.3-31.5,12.3-11.6,0-23.3-3.6-31.4-11.8-9.7-10-10.9-24.4-10.9-32.3,0-23,10.7-46.3,42.5-46.3ZM1161.5,165.7c2.7,3.6,7.2,6.9,16,6.9s13-2.6,16.5-8c2.9-4.3,6-11,6-24.8s-.4-10.2-2.2-15.4c-3.7-10.6-11.1-15.3-20.2-15.3s-12.7,2.9-16.3,7.3c-5,6-6.5,15.3-6.5,25.1s1.3,17.5,6.6,24.2Z"/>
  <path class="st3" d="M1229.9,97.7h27.4l33.2,68.1v-68.1h17.6v86.5h-26.1l-34.3-71.8v71.8h-17.9v-86.5Z"/>
  <path class="st3" d="M1322.6,97.7h59.3v14.1h-40.3v20.6h37.7v14.1h-37.7v23.3h41.6v14.4h-60.6v-86.5Z"/>
  <rect class="st4" x="77.2" y="74.7" width="453.9" height="452"/>
  <path class="st1" d="M367.2,344.1c-14.6-19.4-34.7-31.4-59.8-35.8l-6.5-1.1-37.3-4.8c-3.1,27.6,8.3,45.3,22.4,56.6,4,3.2,8.3,5.9,12.5,8.2,6.2,3.3,12.3,5.7,17.4,7.4.9.3,1.8.6,2.8.9,18.7,6.6,32.1,23.2,32.1,43.7s-21.8,47.4-48.7,47.4h.7c-3.1,0-6.3-.2-9.6-.6h0c-19.6-2.4-37.3-9.6-53-21.3-.4-.4-.8-.8-1.3-1.2-14.1-10.9-26.7-25.6-37.4-44.1-17.1-29.4-26.2-61.9-27.2-97.2,0-.3,0-.7,0-1,0-.3,0-.7,0-1,0-2.8,0-5.6,0-8.5.1-8.7.8-17.5,1.9-26.4,4.3-35.4,14.7-66.4,30.8-92.8h0c9.2-15.1,20.3-28.7,33.2-40.7,4.6-4.3,9.5-8.3,14.5-12.1-1.1.3-2.2.6-3.4.9-67.8,20.1-121.1,77.8-132.3,151.7-.2,1.6-.4,3.2-.6,4.7-.9,7.6-1.4,15-1.5,22.4,0,0,0,0,0,.1h0c0,.6,0,1.1,0,1.7s0,.8,0,1.1c.2,21.3,4,41.9,10.8,61.1,6.6,18.1,16.2,35.4,28.9,51.9,5.9,7.7,12.2,14.8,18.8,21.4,28,26.6,64.5,44.8,105.7,50,25.9,2.7,49-3.4,68.7-18.4,20.2-15.3,32-36.1,35.2-61.8,3-24.9-2.9-43.1-17.5-62.5Z"/>
  <path class="st2" d="M491.7,300c0-.4,0-.8,0-1.1-.2-21.3-3.9-41.9-10.8-61.1-6.6-18.1-16.2-35.4-28.9-51.9-5.9-7.7-12.2-14.8-18.8-21.4-28-26.6-64.4-44.8-105.7-50-25.9-2.7-49,3.4-68.7,18.4-20.2,15.3-32,36.1-35.2,61.8-3.1,24.8,2.9,43.1,17.5,62.5,14.6,19.4,34.7,31.4,59.8,35.8l6.6,1.1,37.3,4.8c3.1-27.6-8.3-45.3-22.4-56.6-4-3.2-8.3-5.9-12.5-8.2-6.2-3.4-12.3-5.7-17.4-7.4-.9-.3-1.8-.6-2.8-.9-18.7-6.6-32.1-23.2-32.1-43.7s21.8-47.4,48.7-47.4h-.7c3.1,0,6.3.2,9.5.6h0s0,0,0,0c19.6,2.4,37.3,9.6,53,21.3.4.4.8.8,1.3,1.2,14.2,10.9,26.7,25.6,37.5,44.1,17.1,29.4,26.2,61.9,27.2,97.2,0,.3,0,.7,0,1,0,.3,0,.7,0,1,0,2.8,0,5.7,0,8.5-.1,8.7-.8,17.5-1.9,26.4-4.3,35.4-14.7,66.4-30.8,92.8h0c-9.2,15.1-20.2,28.7-33.2,40.7-4.6,4.3-9.5,8.4-14.5,12.1,1.1-.3,2.3-.6,3.4-.9,67.8-20.1,121.1-77.8,132.3-151.7.2-1.6.4-3.2.6-4.7.9-7.5,1.4-15,1.5-22.4h0v-.2c0-.5,0-1.1,0-1.6Z"/>
  <polygon class="st2" points="478.2 178.9 478.2 127.5 426.8 127.5 478.2 178.9"/>
  <g>
    <path class="st0" d="M627.1,355.3v50.7c0,3.6,1.3,4.8,3.7,4.8s2.3-.4,2.9-.4c1.6,0,2.4,4.8,2.4,5.5,0,3.4-5.1,3.7-7.6,3.7-6.9,0-12.3-3.5-12.3-13.4v-50.9c0-1.6,1.4-2.5,4.7-2.5h1.7c3.3,0,4.7.9,4.7,2.5Z"/>
    <path class="st0" d="M662.8,355.9c0,10.1-7.5,19.4-11,19.4s-3.4-.4-3.4-1.7.4-1.5.7-2.5c1.4-3.2,3.2-7.5,3.2-15.1s1.4-3.5,4.6-3.5h1.4c3.2,0,4.6,1.4,4.6,3.3Z"/>
    <path class="st0" d="M692.4,355.3v6.4c0,1.7-1.4,2.5-4.7,2.5h-1.9c-3.3,0-4.7-.8-4.7-2.5v-6.4c0-1.6,1.4-2.5,4.7-2.5h1.9c3.2,0,4.7.9,4.7,2.5ZM692.3,375.3v41.4c0,1.6-1.4,2.5-4.7,2.5h-1.7c-3.3,0-4.7-.9-4.7-2.5v-41.4c0-1.6,1.4-2.5,4.7-2.5h1.7c3.3,0,4.7.9,4.7,2.5Z"/>
    <path class="st0" d="M751.8,386.7v30.1c0,1.6-1.3,2.5-4.6,2.5h-1.8c-3.2,0-4.6-.9-4.6-2.5v-28.6c0-4.1-2.1-6.6-6.7-6.6s-6.8,2.8-8.4,5.5v29.7c0,1.6-1.4,2.5-4.7,2.5h-1.7c-3.3,0-4.7-.9-4.7-2.5v-29c0-8.2-1.1-10.6-1.1-11.9,0-1.9,6.2-2.5,8-2.5s2.8,3.5,3.3,5.7c3-3.6,7.9-6.6,13.4-6.6,8.8,0,13.4,4.7,13.4,14.2Z"/>
    <path class="st0" d="M786.3,364.3v8.7h5.4c1.7,0,2.4,1.1,2.4,3.8v1.3c0,2.6-.7,3.8-2.4,3.8h-5.4v24.1c0,3.6,1.4,4.8,3.8,4.8s2.3-.4,2.9-.4c1.6,0,2.4,4.8,2.4,5.5,0,3.4-5.1,3.7-7.6,3.7-6.9,0-12.3-3.5-12.3-13.4v-24.3h-2.5c-1.6,0-2.3-1.1-2.3-3.8v-1.3c0-2.6.7-3.8,2.3-3.8h2.5l1.1-8.7c.3-1.6,1.6-2.5,4-2.5h2.1c2.6,0,3.7.9,3.7,2.5Z"/>
    <path class="st0" d="M851.7,395.2c0,1.3-2.8,4.6-4,4.6h-24.3c.6,8.1,4.6,11.1,11.3,11.1s10.4-3.1,11.4-3.1c1.7,0,4,4.3,4,5.8,0,3.6-9.4,6.1-15.8,6.1-15.4,0-22.4-8.5-22.4-23.3s8.2-23.9,21-23.9,18.7,9.6,18.7,22.8ZM823.4,391.9h17.4c0-6.6-2.5-10.7-7.9-10.7s-8.6,3.1-9.5,10.7Z"/>
    <path class="st0" d="M882.6,355.3v50.7c0,3.6,1.3,4.8,3.7,4.8s2.3-.4,2.9-.4c1.6,0,2.4,4.8,2.4,5.5,0,3.4-5.1,3.7-7.6,3.7-6.9,0-12.3-3.5-12.3-13.4v-50.9c0-1.6,1.4-2.5,4.7-2.5h1.7c3.3,0,4.7.9,4.7,2.5Z"/>
    <path class="st0" d="M918.8,355.3v50.7c0,3.6,1.3,4.8,3.7,4.8s2.3-.4,2.9-.4c1.6,0,2.4,4.8,2.4,5.5,0,3.4-5.1,3.7-7.6,3.7-6.9,0-12.3-3.5-12.3-13.4v-50.9c0-1.6,1.4-2.5,4.7-2.5h1.7c3.3,0,4.7.9,4.7,2.5Z"/>
    <path class="st0" d="M955.3,355.3v6.4c0,1.7-1.4,2.5-4.7,2.5h-1.9c-3.3,0-4.7-.8-4.7-2.5v-6.4c0-1.6,1.4-2.5,4.7-2.5h1.9c3.3,0,4.7.9,4.7,2.5ZM955.2,375.3v41.4c0,1.6-1.4,2.5-4.7,2.5h-1.7c-3.3,0-4.7-.9-4.7-2.5v-41.4c0-1.6,1.4-2.5,4.7-2.5h1.7c3.3,0,4.7.9,4.7,2.5Z"/>
    <path class="st0" d="M1001.1,373h14.8c1.7,0,2.4,1.1,2.4,3.8v1.3c0,2.5-.7,3.6-2,3.6s-3.5-.2-4.7-.4v.3c1,1.5,1.6,3.9,1.6,5.9,0,9.9-7.2,15.2-17.7,15.2s-6.4,1.1-6.4,3.7c0,3.9,6.6,3.9,13.4,4.9,6.8,1.1,13.5,3.4,13.5,12s-8.3,14.3-21.7,14.3-20-3.7-20-11.7,3.1-8.5,8-10.5v-.3c-2.3-1.4-3.6-3.8-3.6-6.9s1.8-6.1,5.2-8c-4.6-2.4-7.3-6.8-7.3-12.8,0-10.1,7.6-15.1,18.3-15.1s4.3.2,6.2.6ZM984.7,424.1c0,3.4,4.2,4.8,10.5,4.8s10.1-1.8,10.1-5.1-6.7-4.1-15.5-5.4c-3.1,1.1-5.1,3.2-5.1,5.6ZM986.8,387.6c0,5.1,3.6,6.9,8,6.9s8-1.8,8-6.9-3.6-7.1-8-7.1-8,1.9-8,7.1Z"/>
    <path class="st0" d="M1073.5,395.2c0,1.3-2.8,4.6-4,4.6h-24.3c.6,8.1,4.6,11.1,11.3,11.1s10.4-3.1,11.4-3.1c1.7,0,4,4.3,4,5.8,0,3.6-9.4,6.1-15.8,6.1-15.4,0-22.4-8.5-22.4-23.3s8.2-23.9,21-23.9,18.7,9.6,18.7,22.8ZM1045.2,391.9h17.4c0-6.6-2.5-10.7-7.9-10.7s-8.6,3.1-9.5,10.7Z"/>
    <path class="st0" d="M1130.4,386.7v30.1c0,1.6-1.3,2.5-4.6,2.5h-1.8c-3.2,0-4.6-.9-4.6-2.5v-28.6c0-4.1-2.1-6.6-6.7-6.6s-6.8,2.8-8.4,5.5v29.7c0,1.6-1.4,2.5-4.7,2.5h-1.7c-3.3,0-4.7-.9-4.7-2.5v-29c0-8.2-1.1-10.6-1.1-11.9,0-1.9,6.2-2.5,8-2.5s2.8,3.5,3.3,5.7c3-3.6,7.9-6.6,13.4-6.6,8.8,0,13.4,4.7,13.4,14.2Z"/>
    <path class="st0" d="M1186.1,379c0,.5,0,.9-.2,1.1l-22.1,30h20.2c1.6,0,2.3,1.1,2.3,3.8v1.3c0,2.6-.7,3.8-2.3,3.8h-32.8c-1,0-2.3-3.8-2.3-5.9s0-.9.3-1.1l22.1-30.1h-18.5c-1.7,0-2.4-1.1-2.4-3.8v-1.3c0-2.6.7-3.8,2.4-3.8h31c.9,0,2.2,3.9,2.2,6Z"/>
    <path class="st0" d="M1241,386.7v17.7c0,8.4,1.1,10.8,1.1,12.1,0,1.9-6.2,2.5-8,2.5s-2.8-3.7-3.3-6.1c-1.6,2-6.1,6.6-13.6,6.6s-13.7-5.1-13.7-12.9,7.6-16.2,26.6-16.3v-3.3c0-3.5-2.1-5.9-7.8-5.9s-11.2,3.2-12.1,3.2c-1.7,0-4-4.6-4-6.1,0-2.7,7.3-5.9,16.7-5.9s18.3,5.7,18.3,14.3ZM1214.5,405.6c0,3.2,1.8,5.1,5.5,5.1s7.8-2.5,10-5.7v-6.9c-8.6,0-15.6,1.5-15.6,7.5Z"/>
    <path class="st0" d="M653.6,449.4v49.1c0,8.4,1.1,10.8,1.1,12.1,0,1.9-6.2,2.5-8,2.5-2.5,0-2.8-3.7-3.3-6.1-2.9,4-7.3,6.6-12.6,6.6-9.9,0-16.7-9-16.7-23.6s6.9-23.6,18.3-23.6,7.8,1.6,10.3,3.3v-20.5c0-1.6,1.4-2.5,4.7-2.5h1.7c3.3,0,4.7.9,4.7,2.5ZM625.2,489.8c0,9.6,2.9,14.9,8.4,14.9s6.6-2.4,9-5.5v-21.2c-2.1-1.5-4.7-2.5-7.9-2.5-6.4,0-9.5,5.1-9.5,14.4Z"/>
    <path class="st0" d="M687.1,449.4v6.4c0,1.7-1.4,2.5-4.7,2.5h-1.9c-3.3,0-4.7-.8-4.7-2.5v-6.4c0-1.6,1.4-2.5,4.7-2.5h1.9c3.2,0,4.7.9,4.7,2.5ZM687,469.4v41.4c0,1.6-1.4,2.5-4.7,2.5h-1.7c-3.3,0-4.7-.9-4.7-2.5v-41.4c0-1.6,1.4-2.5,4.7-2.5h1.7c3.3,0,4.7.9,4.7,2.5Z"/>
    <path class="st0" d="M778.4,489.3c0,1.3-2.8,4.6-4,4.6h-24.3c.6,8.1,4.6,11.1,11.3,11.1s10.4-3.1,11.4-3.1c1.7,0,4,4.3,4,5.8,0,3.6-9.4,6.1-15.8,6.1-15.4,0-22.4-8.5-22.4-23.3s8.2-23.9,21-23.9,18.7,9.6,18.7,22.8ZM750.1,486.1h17.4c0-6.6-2.5-10.7-7.9-10.7s-8.6,3.1-9.5,10.7Z"/>
    <path class="st0" d="M824.1,471.1c0,1.8-2,6.2-3.4,6.2s-3.4-2-7.7-2-5.8,1.3-5.8,4c0,4,4,5.3,8.8,7.2,6.4,2.5,10,5.5,10,12.9s-6.5,14.5-16.7,14.5-14.3-2.6-14.3-5.8,2.5-5.9,4-5.9,4.2,2.8,9.5,2.8,6.3-1.7,6.3-4.9-3.1-4.8-8-6.6c-6.2-2-10.8-5.2-10.8-13.2s6.2-13.8,15.5-13.8,12.7,1.6,12.7,4.7Z"/>
    <path class="st0" d="M870.5,471.1c0,1.8-2,6.2-3.4,6.2s-3.4-2-7.7-2-5.8,1.3-5.8,4c0,4,4,5.3,8.8,7.2,6.4,2.5,10,5.5,10,12.9s-6.5,14.5-16.7,14.5-14.3-2.6-14.3-5.8,2.5-5.9,4-5.9,4.2,2.8,9.5,2.8,6.3-1.7,6.3-4.9-3.1-4.8-8-6.6c-6.2-2-10.8-5.2-10.8-13.2s6.2-13.8,15.5-13.8,12.7,1.6,12.7,4.7Z"/>
    <path class="st0" d="M928.9,489.3c0,1.3-2.8,4.6-4,4.6h-24.3c.6,8.1,4.6,11.1,11.3,11.1s10.4-3.1,11.4-3.1c1.7,0,4,4.3,4,5.8,0,3.6-9.4,6.1-15.8,6.1-15.4,0-22.4-8.5-22.4-23.3s8.2-23.9,21-23.9,18.7,9.6,18.7,22.8ZM900.6,486.1h17.4c0-6.6-2.5-10.7-7.9-10.7s-8.6,3.1-9.5,10.7Z"/>
    <path class="st0" d="M974,470.8c0,1.7-.9,6.4-2.4,6.4s-2.2-.8-4.4-.8c-4,0-6.8,3.7-7.4,4.7v29.7c0,1.6-1.4,2.5-4.7,2.5h-1.7c-3.3,0-4.7-.9-4.7-2.5v-29c0-8.2-1.1-10.6-1.1-11.9,0-1.9,6.2-2.5,8-2.5s2.8,3.5,3.3,5.7c2.3-3.6,5.2-6.6,9.8-6.6s5,2.5,5,4.2Z"/>
    <path class="st0" d="M1025,471.8c0,1.6-2.6,6.1-4,6.1s-.8-.3-1.4-.5c-1.6-.8-4.3-2-8.4-2-7.3,0-11,4.5-11,14.7s3.1,14.9,11,14.9,7.5-1.3,9.1-2.1c.7-.3,1.1-.5,1.4-.5,1.7,0,4,4.3,4,5.9,0,3.9-10.2,5.5-14.8,5.5-14.8,0-22-7.3-22-23.5s8.3-23.7,22-23.7,14.1,1.9,14.1,5.3Z"/>
    <path class="st0" d="M1055,449.4v6.4c0,1.7-1.4,2.5-4.7,2.5h-1.9c-3.3,0-4.7-.8-4.7-2.5v-6.4c0-1.6,1.4-2.5,4.7-2.5h1.9c3.2,0,4.7.9,4.7,2.5ZM1054.9,469.4v41.4c0,1.6-1.4,2.5-4.7,2.5h-1.7c-3.3,0-4.7-.9-4.7-2.5v-41.4c0-1.6,1.4-2.5,4.7-2.5h1.7c3.3,0,4.7.9,4.7,2.5Z"/>
  </g>
</svg>