<?xml version="1.0" encoding="UTF-8"?>
<svg id="Livello_1" data-name="Livello 1" xmlns="http://www.w3.org/2000/svg" viewBox="0 0 1307.16 452.03">
  <defs>
    <style>
      .cls-1 {
        fill: #d1d3d4;
      }

      .cls-2 {
        fill: #010101;
      }

      .cls-3 {
        fill: #231f20;
      }

      .cls-4 {
        fill: #fff;
      }

      .cls-5 {
        fill: #d31e47;
      }
    </style>
  </defs>
  <g>
    <path class="cls-3" d="M610,164.35c-.16-2.93-.31-6.93-3.15-11.25-4.73-7.39-13.72-8.62-19.08-8.62-27.76,0-33.27,25.26-33.27,42.36,0,7.54,1.1,21.1,9.46,29.88,5.68,6.16,13.25,9.55,26.81,9.55,11.83,0,15.93-1.39,18.61-2.16v-23.41h-22.08v-18.48h46.52v55.61c-7.1,2.3-18.76,6.16-41.64,6.16-26.02,0-39.42-6.16-48.41-14.78-12.77-12.17-15.14-29.89-15.14-41.59,0-39.43,25.23-60.53,59.77-60.53,14.67,0,29.81,4,38.8,14.02,7.57,8.47,8.04,17.25,8.2,23.26h-25.39Z"/>
    <path class="cls-3" d="M698.21,127.84c12.14,0,28.86,2.77,40.06,15.1,12.14,13.55,14.51,30.96,14.51,41.89,0,16.17-5.04,33.43-14.35,43.59-12.62,13.86-31.07,15.86-40.53,15.86-14.98,0-29.96-4.62-40.37-15.25-12.46-12.94-14.04-31.42-14.04-41.59,0-29.57,13.72-59.61,54.72-59.61ZM677.56,217.79c3.47,4.62,9.3,8.94,20.66,8.94,9.94,0,16.72-3.4,21.29-10.32,3.79-5.55,7.73-14.17,7.73-31.88,0-5.39-.47-13.09-2.84-19.87-4.73-13.71-14.35-19.72-26.02-19.72-9.15,0-16.4,3.7-20.98,9.4-6.46,7.7-8.36,19.71-8.36,32.34,0,10.63,1.73,22.49,8.51,31.11Z"/>
    <path class="cls-3" d="M762.89,130.31h24.92v92.27h48.89v18.94h-73.81v-111.21Z"/>
    <path class="cls-3" d="M847.92,129.85h24.45v111.67h-24.45v-111.67Z"/>
    <path class="cls-3" d="M894.22,130.15h35.33l42.73,87.64v-87.64h22.71v111.36h-33.59l-44.15-92.42v92.42h-23.03v-111.36Z"/>
    <path class="cls-3" d="M1016,130.15h76.33v18.17h-51.88v26.49h48.57v18.18h-48.57v30.03h53.62v18.49h-78.06v-111.36Z"/>
    <path class="cls-3" d="M1111.24,130.31h24.91v92.27h48.89v18.94h-73.8v-111.21Z"/>
    <path class="cls-3" d="M1197.69,130.31h24.91v92.27h48.89v18.94h-73.81v-111.21Z"/>
    <path class="cls-3" d="M1282.72,129.85h24.44v111.67h-24.44v-111.67Z"/>
  </g>
  <path class="cls-3" d="M528.62,23.03h57.08v13.88h-38.09v21.29h35.52v14.36h-35.52v36.85h-18.99V23.03Z"/>
  <path class="cls-3" d="M633.09,21.12c9.43,0,22.41,2.15,31.11,11.72,9.43,10.53,11.27,24.05,11.27,32.54,0,12.56-3.92,25.96-11.14,33.86-9.8,10.77-24.13,12.32-31.48,12.32-11.64,0-23.27-3.59-31.36-11.84-9.68-10.05-10.9-24.41-10.9-32.3,0-22.97,10.66-46.3,42.5-46.3ZM617.05,90.99c2.69,3.59,7.23,6.94,16.04,6.94,7.72,0,12.98-2.63,16.54-8.02,2.94-4.31,6-11.01,6-24.76,0-4.19-.37-10.17-2.2-15.43-3.67-10.65-11.15-15.31-20.21-15.31-7.1,0-12.74,2.87-16.29,7.3-5.02,5.98-6.49,15.31-6.49,25.12,0,8.25,1.35,17.47,6.62,24.17Z"/>
  <path class="cls-3" d="M686.74,22.92h27.44l33.19,68.07V22.92h17.64v86.49h-26.09l-34.3-71.78v71.78h-17.88V22.92Z"/>
  <path class="cls-3" d="M782.59,23.16l29.27.12c4.9,0,19.84.12,30.5,7.78,11.15,8.02,15.07,21.66,15.07,33.98,0,26.56-14.58,40.44-31.36,43.43-3.31.6-6.98.96-15.92.96h-27.56V23.16ZM801.82,95.17c2.08.12,5.27.24,7.47.24,8.08,0,15.06-.6,20.58-5.98,7.47-7.3,7.96-20.22,7.96-24.4,0-12.21-4.29-23.45-16.17-26.68-3.92-1.08-8.94-1.67-19.84-1.2v58.02Z"/>
  <path class="cls-3" d="M911.9,22.92l30.74,86.49h-19.11l-6.37-18.66h-35.03l-6.61,18.66h-18.12l31.97-86.49h22.54ZM912.38,76.75l-12.25-36.85-13.11,36.85h25.35Z"/>
  <path class="cls-3" d="M947.11,93.62l46.3-56.59-43.48.36v-14.12h64.06v16.39l-46.18,56.23,47.16-.72v14.24h-67.85v-15.79Z"/>
  <path class="cls-3" d="M1028.82,22.68h18.98v86.73h-18.98V22.68Z"/>
  <path class="cls-3" d="M1100.34,21.12c9.43,0,22.42,2.15,31.11,11.72,9.43,10.53,11.27,24.05,11.27,32.54,0,12.56-3.92,25.96-11.15,33.86-9.8,10.77-24.13,12.32-31.48,12.32-11.63,0-23.27-3.59-31.36-11.84-9.68-10.05-10.9-24.41-10.9-32.3,0-22.97,10.66-46.3,42.5-46.3ZM1084.3,90.99c2.69,3.59,7.23,6.94,16.04,6.94,7.72,0,12.99-2.63,16.54-8.02,2.94-4.31,6-11.01,6-24.76,0-4.19-.37-10.17-2.21-15.43-3.67-10.65-11.15-15.31-20.21-15.31-7.11,0-12.74,2.87-16.29,7.3-5.02,5.98-6.49,15.31-6.49,25.12,0,8.25,1.35,17.47,6.62,24.17Z"/>
  <path class="cls-3" d="M1152.69,22.92h27.43l33.19,68.07V22.92h17.64v86.49h-26.09l-34.3-71.78v71.78h-17.88V22.92Z"/>
  <path class="cls-3" d="M1245.41,22.92h59.28v14.12h-40.3v20.58h37.72v14.12h-37.72v23.33h41.64v14.36h-60.63V22.92Z"/>
  <rect class="cls-5" width="453.88" height="452.03"/>
  <path class="cls-2" d="M289.95,269.33c-14.6-19.4-34.72-31.42-59.77-35.75l-6.55-1.09-37.3-4.76c-3.08,27.56,8.29,45.28,22.43,56.59,4.03,3.22,8.26,5.91,12.47,8.2,6.19,3.34,12.29,5.74,17.42,7.43.92.32,1.84.61,2.76.93,18.71,6.56,32.07,23.22,32.07,43.71,0,26.18-21.79,47.39-48.67,47.39h.68c-3.12.01-6.29-.17-9.55-.57h0c-19.57-2.4-37.27-9.56-52.97-21.32-.37-.39-.82-.78-1.33-1.18-14.15-10.91-26.66-25.65-37.44-44.12-17.09-29.37-26.2-61.93-27.23-97.17,0-.34-.02-.66-.04-1,0-.34,0-.69-.01-1.03-.06-2.82-.06-5.65,0-8.5.14-8.68.76-17.5,1.86-26.44,4.35-35.36,14.68-66.4,30.82-92.83l-.07-.06c9.19-15.07,20.26-28.65,33.19-40.66,4.63-4.29,9.48-8.34,14.51-12.13-1.14.3-2.25.61-3.38.93C106,65.94,52.72,123.67,41.54,197.61c-.22,1.57-.45,3.16-.63,4.74-.94,7.56-1.42,15-1.5,22.37,0,.05,0,.09,0,.14v.03c0,.55,0,1.09,0,1.64,0,.37,0,.75,0,1.12.17,21.27,3.95,41.87,10.82,61.14,6.61,18.09,16.22,35.41,28.86,51.87,5.93,7.73,12.2,14.84,18.81,21.35,28.01,26.61,64.46,44.81,105.7,49.98,25.85,2.74,48.95-3.42,68.69-18.37,20.18-15.28,32.02-36.07,35.18-61.78,3.05-24.85-2.92-43.13-17.52-62.5Z"/>
  <path class="cls-4" d="M414.51,225.31c0-.37-.02-.75-.02-1.13-.17-21.27-3.94-41.87-10.82-61.13-6.62-18.11-16.23-35.42-28.86-51.87-5.93-7.73-12.2-14.85-18.82-21.36-28.01-26.6-64.44-44.81-105.7-49.98-25.86-2.75-48.96,3.43-68.69,18.37-20.17,15.28-32.02,36.07-35.18,61.79-3.06,24.85,2.92,43.12,17.51,62.49,14.6,19.41,34.71,31.44,59.78,35.76l6.55,1.09,37.3,4.76c3.07-27.56-8.3-45.27-22.44-56.58-4.03-3.23-8.26-5.92-12.47-8.19-6.18-3.35-12.29-5.75-17.41-7.44-.92-.31-1.84-.61-2.77-.93-18.71-6.57-32.06-23.22-32.06-43.72,0-26.16,21.78-47.38,48.66-47.38h-.67c3.11,0,6.29.17,9.55.58h0s0,0,0,0c19.57,2.41,37.26,9.56,52.96,21.32.38.38.81.77,1.32,1.17,14.17,10.91,26.68,25.65,37.45,44.13,17.09,29.37,26.2,61.93,27.24,97.18,0,.32.01.66.03.99,0,.34,0,.69,0,1.03.06,2.83.06,5.67,0,8.51-.15,8.68-.76,17.49-1.86,26.42-4.34,35.35-14.66,66.4-30.81,92.82l.07.06c-9.18,15.07-20.24,28.64-33.19,40.66-4.63,4.3-9.48,8.35-14.51,12.13,1.13-.3,2.25-.62,3.38-.93,67.83-20.05,121.12-77.78,132.3-151.71.23-1.58.44-3.16.64-4.75.93-7.55,1.43-15,1.51-22.37v-.17c0-.55.02-1.09.02-1.64Z"/>
  <polygon class="cls-4" points="400.97 104.17 400.97 52.74 349.56 52.74 400.97 104.17"/>
  <g>
    <path class="cls-1" d="M549.87,280.54v50.71c0,3.6,1.32,4.83,3.69,4.83,1.5,0,2.29-.44,2.9-.44,1.58,0,2.37,4.83,2.37,5.54,0,3.43-5.1,3.69-7.65,3.69-6.86,0-12.3-3.52-12.3-13.45v-50.89c0-1.58,1.41-2.46,4.66-2.46h1.67c3.25,0,4.66.88,4.66,2.46Z"/>
    <path class="cls-1" d="M585.54,281.15c0,10.11-7.48,19.43-10.99,19.43-1.32,0-3.43-.44-3.43-1.67,0-.7.36-1.49.7-2.46,1.4-3.17,3.16-7.47,3.16-15.12,0-2.11,1.41-3.52,4.57-3.52h1.41c3.16,0,4.57,1.41,4.57,3.34Z"/>
    <path class="cls-1" d="M615.14,280.54v6.42c0,1.67-1.41,2.46-4.66,2.46h-1.94c-3.25,0-4.66-.79-4.66-2.46v-6.42c0-1.58,1.4-2.46,4.66-2.46h1.94c3.25,0,4.66.88,4.66,2.46ZM615.05,300.58v41.4c0,1.58-1.4,2.46-4.66,2.46h-1.67c-3.25,0-4.66-.88-4.66-2.46v-41.4c0-1.58,1.41-2.46,4.66-2.46h1.67c3.25,0,4.66.88,4.66,2.46Z"/>
    <path class="cls-1" d="M674.54,311.92v30.06c0,1.58-1.32,2.46-4.57,2.46h-1.76c-3.16,0-4.57-.88-4.57-2.46v-28.57c0-4.13-2.11-6.59-6.68-6.59-3.69,0-6.77,2.81-8.44,5.45v29.71c0,1.58-1.4,2.46-4.66,2.46h-1.67c-3.25,0-4.66-.88-4.66-2.46v-29.01c0-8.17-1.05-10.63-1.05-11.87,0-1.93,6.15-2.55,8-2.55,2.55,0,2.81,3.51,3.34,5.71,2.98-3.6,7.91-6.59,13.36-6.59,8.79,0,13.36,4.75,13.36,14.24Z"/>
    <path class="cls-1" d="M709.05,289.59v8.7h5.45c1.67,0,2.37,1.14,2.37,3.78v1.32c0,2.64-.7,3.78-2.37,3.78h-5.45v24.08c0,3.6,1.4,4.83,3.78,4.83,1.4,0,2.29-.44,2.9-.44,1.58,0,2.37,4.83,2.37,5.54,0,3.43-5.1,3.69-7.65,3.69-6.85,0-12.3-3.52-12.3-13.45v-24.26h-2.55c-1.58,0-2.29-1.14-2.29-3.78v-1.32c0-2.64.7-3.78,2.29-3.78h2.55l1.05-8.7c.26-1.58,1.59-2.46,4.04-2.46h2.11c2.64,0,3.7.88,3.7,2.46Z"/>
    <path class="cls-1" d="M774.52,320.45c0,1.32-2.81,4.57-3.96,4.57h-24.35c.61,8.09,4.57,11.08,11.34,11.08,6.33,0,10.37-3.08,11.43-3.08,1.67,0,4.04,4.31,4.04,5.8,0,3.61-9.41,6.07-15.82,6.07-15.38,0-22.42-8.53-22.42-23.29,0-16.7,8.17-23.91,21.01-23.91s18.73,9.58,18.73,22.77ZM746.21,317.19h17.4c0-6.59-2.55-10.72-7.91-10.72s-8.62,3.08-9.49,10.72Z"/>
    <path class="cls-1" d="M805.34,280.54v50.71c0,3.6,1.32,4.83,3.69,4.83,1.5,0,2.29-.44,2.9-.44,1.58,0,2.37,4.83,2.37,5.54,0,3.43-5.1,3.69-7.65,3.69-6.86,0-12.3-3.52-12.3-13.45v-50.89c0-1.58,1.41-2.46,4.66-2.46h1.67c3.25,0,4.66.88,4.66,2.46Z"/>
    <path class="cls-1" d="M841.61,280.54v50.71c0,3.6,1.32,4.83,3.69,4.83,1.5,0,2.29-.44,2.9-.44,1.58,0,2.37,4.83,2.37,5.54,0,3.43-5.1,3.69-7.65,3.69-6.86,0-12.3-3.52-12.3-13.45v-50.89c0-1.58,1.41-2.46,4.66-2.46h1.67c3.25,0,4.66.88,4.66,2.46Z"/>
    <path class="cls-1" d="M878.07,280.54v6.42c0,1.67-1.41,2.46-4.66,2.46h-1.93c-3.25,0-4.66-.79-4.66-2.46v-6.42c0-1.58,1.4-2.46,4.66-2.46h1.93c3.25,0,4.66.88,4.66,2.46ZM877.98,300.58v41.4c0,1.58-1.4,2.46-4.66,2.46h-1.67c-3.25,0-4.66-.88-4.66-2.46v-41.4c0-1.58,1.41-2.46,4.66-2.46h1.67c3.25,0,4.66.88,4.66,2.46Z"/>
    <path class="cls-1" d="M923.85,298.29h14.77c1.67,0,2.37,1.14,2.37,3.78v1.32c0,2.55-.7,3.61-2.02,3.61-1.41,0-3.52-.18-4.66-.35l-.09.26c1.06,1.49,1.67,3.87,1.67,5.89,0,9.93-7.21,15.21-17.67,15.21-4.22,0-6.42,1.05-6.42,3.69,0,3.87,6.59,3.87,13.36,4.92,6.77,1.14,13.54,3.43,13.54,11.96s-8.26,14.33-21.71,14.33-19.95-3.69-19.95-11.69c0-4.83,3.08-8.52,8-10.46l.09-.27c-2.38-1.41-3.7-3.78-3.7-6.85,0-3.34,1.84-6.07,5.18-8-4.57-2.37-7.29-6.77-7.29-12.83,0-10.11,7.56-15.12,18.28-15.12,2.2,0,4.31.17,6.24.61ZM907.5,349.36c0,3.43,4.22,4.83,10.46,4.83,6.86,0,10.1-1.85,10.1-5.1,0-4.13-6.68-4.13-15.47-5.36-3.08,1.14-5.1,3.17-5.1,5.63ZM909.61,312.89c0,5.1,3.6,6.94,8,6.94s8-1.85,8-6.94-3.6-7.12-8-7.12-8,1.93-8,7.12Z"/>
    <path class="cls-1" d="M996.25,320.45c0,1.32-2.81,4.57-3.96,4.57h-24.35c.61,8.09,4.57,11.08,11.34,11.08,6.33,0,10.37-3.08,11.43-3.08,1.67,0,4.04,4.31,4.04,5.8,0,3.61-9.41,6.07-15.82,6.07-15.38,0-22.42-8.53-22.42-23.29,0-16.7,8.17-23.91,21.01-23.91s18.73,9.58,18.73,22.77ZM967.94,317.19h17.4c0-6.59-2.55-10.72-7.91-10.72s-8.62,3.08-9.49,10.72Z"/>
    <path class="cls-1" d="M1053.17,311.92v30.06c0,1.58-1.32,2.46-4.57,2.46h-1.76c-3.16,0-4.57-.88-4.57-2.46v-28.57c0-4.13-2.11-6.59-6.69-6.59-3.69,0-6.77,2.81-8.44,5.45v29.71c0,1.58-1.4,2.46-4.66,2.46h-1.67c-3.25,0-4.66-.88-4.66-2.46v-29.01c0-8.17-1.05-10.63-1.05-11.87,0-1.93,6.15-2.55,8-2.55,2.55,0,2.81,3.51,3.34,5.71,2.98-3.6,7.91-6.59,13.36-6.59,8.79,0,13.36,4.75,13.36,14.24Z"/>
    <path class="cls-1" d="M1108.86,304.27c0,.53-.09.88-.18,1.14l-22.06,29.97h20.22c1.58,0,2.29,1.14,2.29,3.78v1.32c0,2.64-.7,3.78-2.29,3.78h-32.78c-.97,0-2.29-3.78-2.29-5.89,0-.44.09-.88.26-1.14l22.15-30.06h-18.54c-1.67,0-2.37-1.14-2.37-3.78v-1.32c0-2.64.7-3.78,2.37-3.78h31.03c.88,0,2.2,3.87,2.2,5.98Z"/>
    <path class="cls-1" d="M1163.77,312.01v17.67c0,8.44,1.05,10.81,1.05,12.13,0,1.93-6.15,2.55-8,2.55-2.55,0-2.81-3.69-3.34-6.07-1.58,2.02-6.06,6.59-13.62,6.59-9.14,0-13.71-5.1-13.71-12.92,0-10.02,7.56-16.17,26.64-16.26v-3.34c0-3.51-2.11-5.89-7.83-5.89-7.03,0-11.17,3.17-12.13,3.17-1.67,0-4.04-4.57-4.04-6.06,0-2.73,7.29-5.89,16.7-5.89,12.75,0,18.29,5.71,18.29,14.33ZM1137.22,330.9c0,3.17,1.84,5.1,5.53,5.1,4.4,0,7.83-2.55,10.03-5.71v-6.86c-8.62.09-15.56,1.5-15.56,7.47Z"/>
    <path class="cls-1" d="M576.33,374.67v49.13c0,8.44,1.05,10.81,1.05,12.13,0,1.93-6.24,2.55-8,2.55-2.55,0-2.81-3.69-3.34-6.07-2.9,4.04-7.29,6.59-12.57,6.59-9.93,0-16.7-8.97-16.7-23.64s6.94-23.56,18.28-23.56c4.66,0,7.83,1.58,10.29,3.34v-20.48c0-1.58,1.4-2.46,4.66-2.46h1.67c3.25,0,4.66.88,4.66,2.46ZM547.93,415.1c0,9.58,2.9,14.85,8.44,14.85,3.52,0,6.59-2.37,8.97-5.54v-21.18c-2.11-1.5-4.75-2.55-7.91-2.55-6.42.09-9.5,5.1-9.5,14.42Z"/>
    <path class="cls-1" d="M609.87,374.67v6.42c0,1.67-1.41,2.46-4.66,2.46h-1.94c-3.25,0-4.66-.79-4.66-2.46v-6.42c0-1.58,1.4-2.46,4.66-2.46h1.94c3.25,0,4.66.88,4.66,2.46ZM609.78,394.7v41.4c0,1.58-1.4,2.46-4.66,2.46h-1.67c-3.25,0-4.66-.88-4.66-2.46v-41.4c0-1.58,1.41-2.46,4.66-2.46h1.67c3.25,0,4.66.88,4.66,2.46Z"/>
    <path class="cls-1" d="M701.16,414.57c0,1.32-2.81,4.57-3.96,4.57h-24.35c.61,8.09,4.57,11.08,11.34,11.08,6.33,0,10.37-3.08,11.43-3.08,1.67,0,4.04,4.31,4.04,5.8,0,3.61-9.41,6.07-15.82,6.07-15.38,0-22.42-8.53-22.42-23.29,0-16.7,8.17-23.91,21.01-23.91s18.73,9.58,18.73,22.77ZM672.86,411.32h17.4c0-6.59-2.55-10.72-7.91-10.72s-8.62,3.08-9.49,10.72Z"/>
    <path class="cls-1" d="M746.83,396.37c0,1.76-2.02,6.15-3.43,6.15-.79,0-3.43-2.02-7.74-2.02-3.43,0-5.8,1.32-5.8,3.96,0,3.96,4.04,5.27,8.79,7.21,6.42,2.46,10.02,5.54,10.02,12.92,0,8.53-6.5,14.5-16.7,14.5-7.03,0-14.33-2.63-14.33-5.8,0-1.76,2.55-5.89,4.04-5.89,1.14,0,4.22,2.81,9.49,2.81,4.13,0,6.33-1.67,6.33-4.92,0-3.52-3.08-4.83-8-6.59-6.15-2.02-10.81-5.19-10.81-13.18,0-8.44,6.15-13.8,15.47-13.8,5.45,0,12.65,1.58,12.65,4.66Z"/>
    <path class="cls-1" d="M793.31,396.37c0,1.76-2.02,6.15-3.43,6.15-.79,0-3.43-2.02-7.74-2.02-3.43,0-5.8,1.32-5.8,3.96,0,3.96,4.04,5.27,8.79,7.21,6.42,2.46,10.02,5.54,10.02,12.92,0,8.53-6.5,14.5-16.7,14.5-7.03,0-14.33-2.63-14.33-5.8,0-1.76,2.55-5.89,4.04-5.89,1.14,0,4.22,2.81,9.49,2.81,4.13,0,6.33-1.67,6.33-4.92,0-3.52-3.08-4.83-8.01-6.59-6.15-2.02-10.81-5.19-10.81-13.18,0-8.44,6.15-13.8,15.47-13.8,5.45,0,12.66,1.58,12.66,4.66Z"/>
    <path class="cls-1" d="M851.65,414.57c0,1.32-2.81,4.57-3.96,4.57h-24.35c.61,8.09,4.57,11.08,11.34,11.08,6.33,0,10.37-3.08,11.43-3.08,1.67,0,4.04,4.31,4.04,5.8,0,3.61-9.41,6.07-15.82,6.07-15.38,0-22.42-8.53-22.42-23.29,0-16.7,8.17-23.91,21.01-23.91s18.73,9.58,18.73,22.77ZM823.34,411.32h17.4c0-6.59-2.55-10.72-7.91-10.72s-8.62,3.08-9.49,10.72Z"/>
    <path class="cls-1" d="M896.79,396.02c0,1.67-.88,6.42-2.37,6.42-1.23,0-2.2-.79-4.39-.79-3.96,0-6.77,3.69-7.38,4.75v29.71c0,1.58-1.41,2.46-4.66,2.46h-1.67c-3.25,0-4.66-.88-4.66-2.46v-29.01c0-8.17-1.05-10.63-1.05-11.87,0-1.93,6.15-2.55,8-2.55,2.55,0,2.81,3.51,3.34,5.71,2.29-3.6,5.18-6.59,9.84-6.59,3.96,0,5.01,2.46,5.01,4.22Z"/>
    <path class="cls-1" d="M947.75,397.08c0,1.58-2.64,6.06-3.96,6.06-.35,0-.79-.26-1.4-.53-1.58-.79-4.31-2.02-8.35-2.02-7.29,0-10.99,4.48-10.99,14.68s3.08,14.94,10.99,14.94c4.39,0,7.47-1.32,9.06-2.11.7-.27,1.14-.53,1.4-.53,1.67,0,3.96,4.31,3.96,5.89,0,3.87-10.2,5.54-14.77,5.54-14.77,0-21.97-7.3-21.97-23.47s8.26-23.73,21.97-23.73c6.42,0,14.06,1.93,14.06,5.27Z"/>
    <path class="cls-1" d="M977.78,374.67v6.42c0,1.67-1.41,2.46-4.66,2.46h-1.94c-3.25,0-4.66-.79-4.66-2.46v-6.42c0-1.58,1.4-2.46,4.66-2.46h1.94c3.25,0,4.66.88,4.66,2.46ZM977.69,394.7v41.4c0,1.58-1.4,2.46-4.66,2.46h-1.67c-3.25,0-4.66-.88-4.66-2.46v-41.4c0-1.58,1.41-2.46,4.66-2.46h1.67c3.25,0,4.66.88,4.66,2.46Z"/>
  </g>
</svg>